<mxfile host="Electron" modified="2024-05-11T01:41:39.158Z" agent="Mozilla/5.0 (Windows NT 10.0; Win64; x64) AppleWebKit/537.36 (KHTML, like Gecko) draw.io/24.2.5 Chrome/120.0.6099.109 Electron/28.1.0 Safari/537.36" etag="vzZ3RsVm-m9_gDiAM0im" version="24.2.5" type="device">
  <diagram name="Page-1" id="EIqSjJ_s_Y9J-HGXHXhF">
    <mxGraphModel dx="1709" dy="991" grid="1" gridSize="10" guides="1" tooltips="1" connect="1" arrows="1" fold="1" page="1" pageScale="1" pageWidth="827" pageHeight="1169" math="0" shadow="0">
      <root>
        <mxCell id="0" />
        <mxCell id="1" parent="0" />
        <mxCell id="XfAg8nCb3z_ztqcpyk8Z-2" value="Start" style="rounded=1;whiteSpace=wrap;html=1;fontSize=12;glass=0;strokeWidth=1;shadow=0;" parent="1" vertex="1">
          <mxGeometry x="280" y="130" width="120" height="40" as="geometry" />
        </mxCell>
        <mxCell id="XfAg8nCb3z_ztqcpyk8Z-3" value="false" style="rounded=0;html=1;jettySize=auto;orthogonalLoop=1;fontSize=11;endArrow=block;endFill=0;endSize=8;strokeWidth=1;shadow=0;labelBackgroundColor=none;edgeStyle=orthogonalEdgeStyle;entryX=0.027;entryY=0.519;entryDx=0;entryDy=0;entryPerimeter=0;" parent="1" source="XfAg8nCb3z_ztqcpyk8Z-5" target="XfAg8nCb3z_ztqcpyk8Z-22" edge="1">
          <mxGeometry x="0.1963" y="7" relative="1" as="geometry">
            <mxPoint as="offset" />
            <mxPoint x="340" y="320" as="targetPoint" />
            <Array as="points">
              <mxPoint x="250" y="462" />
            </Array>
          </mxGeometry>
        </mxCell>
        <mxCell id="XfAg8nCb3z_ztqcpyk8Z-4" value="true" style="edgeStyle=orthogonalEdgeStyle;rounded=0;html=1;jettySize=auto;orthogonalLoop=1;fontSize=11;endArrow=block;endFill=0;endSize=8;strokeWidth=1;shadow=0;labelBackgroundColor=none;entryX=0.18;entryY=0.291;entryDx=0;entryDy=0;entryPerimeter=0;" parent="1" source="XfAg8nCb3z_ztqcpyk8Z-5" target="XfAg8nCb3z_ztqcpyk8Z-12" edge="1">
          <mxGeometry x="0.0923" y="13" relative="1" as="geometry">
            <mxPoint as="offset" />
            <mxPoint x="540" as="targetPoint" />
          </mxGeometry>
        </mxCell>
        <mxCell id="XfAg8nCb3z_ztqcpyk8Z-5" value="method2(n1, n2) == VALUE1" style="rhombus;whiteSpace=wrap;html=1;shadow=0;fontFamily=Helvetica;fontSize=12;align=center;strokeWidth=1;spacing=6;spacingTop=-4;" parent="1" vertex="1">
          <mxGeometry x="235" y="205" width="210" height="70" as="geometry" />
        </mxCell>
        <mxCell id="XfAg8nCb3z_ztqcpyk8Z-6" value="true" style="rounded=0;html=1;jettySize=auto;orthogonalLoop=1;fontSize=11;endArrow=block;endFill=0;endSize=8;strokeWidth=1;shadow=0;labelBackgroundColor=none;edgeStyle=orthogonalEdgeStyle;entryX=0.5;entryY=0;entryDx=0;entryDy=0;" parent="1" source="XfAg8nCb3z_ztqcpyk8Z-8" target="XfAg8nCb3z_ztqcpyk8Z-11" edge="1">
          <mxGeometry x="-0.5" y="20" relative="1" as="geometry">
            <mxPoint as="offset" />
          </mxGeometry>
        </mxCell>
        <mxCell id="XfAg8nCb3z_ztqcpyk8Z-7" value="false" style="edgeStyle=orthogonalEdgeStyle;rounded=0;html=1;jettySize=auto;orthogonalLoop=1;fontSize=11;endArrow=block;endFill=0;endSize=8;strokeWidth=1;shadow=0;labelBackgroundColor=none;entryX=1;entryY=0.25;entryDx=0;entryDy=0;" parent="1" source="XfAg8nCb3z_ztqcpyk8Z-8" target="XfAg8nCb3z_ztqcpyk8Z-9" edge="1">
          <mxGeometry x="-0.0302" y="20" relative="1" as="geometry">
            <mxPoint as="offset" />
            <mxPoint x="560" y="965" as="targetPoint" />
            <Array as="points">
              <mxPoint x="490" y="625" />
              <mxPoint x="490" y="815" />
              <mxPoint x="430" y="815" />
            </Array>
          </mxGeometry>
        </mxCell>
        <mxCell id="XfAg8nCb3z_ztqcpyk8Z-8" value="method1(n3, n4) == VALUE2" style="rhombus;whiteSpace=wrap;html=1;shadow=0;fontFamily=Helvetica;fontSize=12;align=center;strokeWidth=1;spacing=6;spacingTop=-4;" parent="1" vertex="1">
          <mxGeometry x="250" y="585" width="220" height="80" as="geometry" />
        </mxCell>
        <mxCell id="XfAg8nCb3z_ztqcpyk8Z-9" value="End" style="rounded=1;whiteSpace=wrap;html=1;fontSize=12;glass=0;strokeWidth=1;shadow=0;" parent="1" vertex="1">
          <mxGeometry x="310" y="795" width="120" height="40" as="geometry" />
        </mxCell>
        <mxCell id="XfAg8nCb3z_ztqcpyk8Z-10" style="edgeStyle=orthogonalEdgeStyle;rounded=0;orthogonalLoop=1;jettySize=auto;html=1;entryX=0.5;entryY=0;entryDx=0;entryDy=0;" parent="1" source="XfAg8nCb3z_ztqcpyk8Z-11" target="XfAg8nCb3z_ztqcpyk8Z-9" edge="1">
          <mxGeometry relative="1" as="geometry" />
        </mxCell>
        <mxCell id="XfAg8nCb3z_ztqcpyk8Z-11" value="sum += n3 + n4" style="rounded=1;whiteSpace=wrap;html=1;fontSize=12;glass=0;strokeWidth=1;shadow=0;" parent="1" vertex="1">
          <mxGeometry x="310" y="705" width="120" height="40" as="geometry" />
        </mxCell>
        <mxCell id="XfAg8nCb3z_ztqcpyk8Z-12" value="method3(n1, n3) == method3(n2, n4)" style="rhombus;whiteSpace=wrap;html=1;shadow=0;fontFamily=Helvetica;fontSize=12;align=center;strokeWidth=1;spacing=6;spacingTop=-4;" parent="1" vertex="1">
          <mxGeometry x="510" y="220" width="250" height="80" as="geometry" />
        </mxCell>
        <mxCell id="XfAg8nCb3z_ztqcpyk8Z-13" value="true" style="rounded=0;html=1;jettySize=auto;orthogonalLoop=1;fontSize=11;endArrow=block;endFill=0;endSize=8;strokeWidth=1;shadow=0;labelBackgroundColor=none;edgeStyle=orthogonalEdgeStyle;entryX=0.5;entryY=0;entryDx=0;entryDy=0;exitX=0.5;exitY=1;exitDx=0;exitDy=0;" parent="1" source="XfAg8nCb3z_ztqcpyk8Z-12" target="XfAg8nCb3z_ztqcpyk8Z-14" edge="1">
          <mxGeometry x="0.1579" y="20" relative="1" as="geometry">
            <mxPoint as="offset" />
            <mxPoint x="350" y="290" as="sourcePoint" />
            <mxPoint x="350" y="380" as="targetPoint" />
            <Array as="points">
              <mxPoint x="680" y="300" />
            </Array>
          </mxGeometry>
        </mxCell>
        <mxCell id="XfAg8nCb3z_ztqcpyk8Z-14" value="sum += n1 + n4" style="rounded=1;whiteSpace=wrap;html=1;fontSize=12;glass=0;strokeWidth=1;shadow=0;" parent="1" vertex="1">
          <mxGeometry x="620" y="350" width="120" height="40" as="geometry" />
        </mxCell>
        <mxCell id="XfAg8nCb3z_ztqcpyk8Z-15" value="false" style="rounded=0;html=1;jettySize=auto;orthogonalLoop=1;fontSize=11;endArrow=block;endFill=0;endSize=8;strokeWidth=1;shadow=0;labelBackgroundColor=none;edgeStyle=orthogonalEdgeStyle;entryX=0;entryY=0;entryDx=0;entryDy=0;exitX=0;exitY=0.5;exitDx=0;exitDy=0;" parent="1" source="XfAg8nCb3z_ztqcpyk8Z-12" target="XfAg8nCb3z_ztqcpyk8Z-17" edge="1">
          <mxGeometry x="-0.2703" y="20" relative="1" as="geometry">
            <mxPoint as="offset" />
            <mxPoint x="540" y="400" as="sourcePoint" />
            <mxPoint x="540" y="455" as="targetPoint" />
            <Array as="points" />
          </mxGeometry>
        </mxCell>
        <mxCell id="XfAg8nCb3z_ztqcpyk8Z-16" value="" style="rounded=0;html=1;jettySize=auto;orthogonalLoop=1;fontSize=11;endArrow=block;endFill=0;endSize=8;strokeWidth=1;shadow=0;labelBackgroundColor=none;edgeStyle=orthogonalEdgeStyle;entryX=1;entryY=0.25;entryDx=0;entryDy=0;exitX=0.5;exitY=1;exitDx=0;exitDy=0;" parent="1" source="XfAg8nCb3z_ztqcpyk8Z-14" target="XfAg8nCb3z_ztqcpyk8Z-17" edge="1">
          <mxGeometry x="-0.8915" y="20" relative="1" as="geometry">
            <mxPoint as="offset" />
            <mxPoint x="490" y="360" as="sourcePoint" />
            <mxPoint x="392" y="577" as="targetPoint" />
            <Array as="points">
              <mxPoint x="680" y="400" />
            </Array>
          </mxGeometry>
        </mxCell>
        <mxCell id="XfAg8nCb3z_ztqcpyk8Z-17" value="sum += n1 + n2" style="rounded=1;whiteSpace=wrap;html=1;fontSize=12;glass=0;strokeWidth=1;shadow=0;" parent="1" vertex="1">
          <mxGeometry x="470" y="390" width="120" height="40" as="geometry" />
        </mxCell>
        <mxCell id="XfAg8nCb3z_ztqcpyk8Z-18" style="edgeStyle=orthogonalEdgeStyle;rounded=0;orthogonalLoop=1;jettySize=auto;html=1;entryX=1;entryY=0;entryDx=0;entryDy=0;exitX=0;exitY=0.5;exitDx=0;exitDy=0;" parent="1" source="XfAg8nCb3z_ztqcpyk8Z-17" target="XfAg8nCb3z_ztqcpyk8Z-22" edge="1">
          <mxGeometry relative="1" as="geometry">
            <mxPoint x="350" y="600" as="sourcePoint" />
            <mxPoint x="350" y="650" as="targetPoint" />
            <Array as="points">
              <mxPoint x="415" y="410" />
            </Array>
          </mxGeometry>
        </mxCell>
        <mxCell id="XfAg8nCb3z_ztqcpyk8Z-22" value="n3 &amp;gt; n4" style="rhombus;whiteSpace=wrap;html=1;shadow=0;fontFamily=Helvetica;fontSize=12;align=center;strokeWidth=1;spacing=6;spacingTop=-4;" parent="1" vertex="1">
          <mxGeometry x="297.5" y="430" width="110" height="60" as="geometry" />
        </mxCell>
        <mxCell id="XfAg8nCb3z_ztqcpyk8Z-23" value="false" style="rounded=0;html=1;jettySize=auto;orthogonalLoop=1;fontSize=11;endArrow=block;endFill=0;endSize=8;strokeWidth=1;shadow=0;labelBackgroundColor=none;edgeStyle=orthogonalEdgeStyle;entryX=0.086;entryY=0.368;entryDx=0;entryDy=0;entryPerimeter=0;exitX=0.182;exitY=0.75;exitDx=0;exitDy=0;exitPerimeter=0;" parent="1" source="XfAg8nCb3z_ztqcpyk8Z-22" target="XfAg8nCb3z_ztqcpyk8Z-8" edge="1">
          <mxGeometry x="0.1414" y="-19" relative="1" as="geometry">
            <mxPoint as="offset" />
            <mxPoint x="266" y="472" as="targetPoint" />
            <Array as="points">
              <mxPoint x="260" y="480" />
              <mxPoint x="260" y="500" />
              <mxPoint x="269" y="500" />
            </Array>
            <mxPoint x="260" y="255" as="sourcePoint" />
          </mxGeometry>
        </mxCell>
        <mxCell id="XfAg8nCb3z_ztqcpyk8Z-24" value="true" style="rounded=0;html=1;jettySize=auto;orthogonalLoop=1;fontSize=11;endArrow=block;endFill=0;endSize=8;strokeWidth=1;shadow=0;labelBackgroundColor=none;edgeStyle=orthogonalEdgeStyle;entryX=0.835;entryY=0.278;entryDx=0;entryDy=0;exitX=0.897;exitY=0.65;exitDx=0;exitDy=0;exitPerimeter=0;entryPerimeter=0;" parent="1" source="XfAg8nCb3z_ztqcpyk8Z-22" target="XfAg8nCb3z_ztqcpyk8Z-8" edge="1">
          <mxGeometry x="0.0125" y="20" relative="1" as="geometry">
            <mxPoint as="offset" />
            <mxPoint x="645" y="310" as="sourcePoint" />
            <mxPoint x="690" y="360" as="targetPoint" />
            <Array as="points">
              <mxPoint x="447" y="500" />
              <mxPoint x="440" y="500" />
              <mxPoint x="440" y="607" />
            </Array>
          </mxGeometry>
        </mxCell>
        <mxCell id="0D1-odQUJ6hDxlJjOM6a-1" style="edgeStyle=orthogonalEdgeStyle;rounded=0;orthogonalLoop=1;jettySize=auto;html=1;entryX=0.5;entryY=0;entryDx=0;entryDy=0;" edge="1" parent="1" source="XfAg8nCb3z_ztqcpyk8Z-2" target="XfAg8nCb3z_ztqcpyk8Z-5">
          <mxGeometry relative="1" as="geometry">
            <mxPoint x="380" y="755" as="sourcePoint" />
            <mxPoint x="380" y="350" as="targetPoint" />
            <Array as="points">
              <mxPoint x="340" y="200" />
              <mxPoint x="340" y="200" />
            </Array>
          </mxGeometry>
        </mxCell>
      </root>
    </mxGraphModel>
  </diagram>
</mxfile>
